<svg width="187" height="322" viewBox="0 0 187 322" fill="none" xmlns="http://www.w3.org/2000/svg">
<g clip-path="url(#clip0_4_241)">
<path d="M172.751 219.369C172.751 287.327 153.151 321.965 94.7829 321.965C36.6825 321.965 16.8267 281.668 16.8267 219.369C16.8267 164.379 51.7154 119.754 94.7829 119.754C137.85 119.754 172.751 164.379 172.751 219.369Z" fill="#FDBC5E" stroke="#F40000" stroke-width="0.1"/>
<path d="M25.8963 175.833C24.4293 179.593 23.1701 183.49 22.0238 187.528L34.1345 175.46L48.8942 190.142L34.1345 204.847L20.9487 191.732C20.4795 193.849 19.9925 196.013 19.6302 198.201L30.2381 208.726L17.6879 221.208C17.6879 225.531 17.7889 229.687 18.0027 233.815L30.2381 245.924L20.3667 255.716C20.7527 257.922 21.1744 260.115 21.6615 262.22L34.1345 249.803L48.8882 264.515L34.1345 279.196L23.1642 268.222C24.2199 272.212 25.5272 276.132 27.0783 279.959L30.2381 283.123L28.9968 284.347C29.8027 286.102 30.6988 287.815 31.6814 289.479L34.1345 287.013L48.8942 301.701L44.7662 305.84C46.1501 307.023 47.5697 308.205 49.0427 309.323L52.8143 305.592L64.8181 317.524C68.3388 318.768 71.9457 319.756 75.6102 320.48L75.4201 320.279L90.1798 305.615L104.916 320.279L103.199 321.988C106.727 321.817 110.131 321.432 113.397 320.947L112.762 320.279L127.504 305.615L135.819 313.893C137.516 313.022 139.164 312.058 140.755 311.008L131.418 301.736L146.231 287.043L155.734 296.503C156.792 294.984 157.819 293.376 158.769 291.738L150.139 283.111L164.887 268.447L167.221 270.812C168.57 265.65 169.627 260.417 170.387 255.137L164.887 260.642L150.116 245.918L164.887 231.237L172.116 238.433C172.27 236.002 172.383 233.537 172.484 230.994L168.766 227.328L172.65 223.497V220.274C172.65 218.76 172.561 217.253 172.525 215.745L164.881 223.432L150.116 208.726L164.887 194.05L171.058 200.229C170.506 196.9 169.87 193.601 169.063 190.408L168.783 190.142L168.968 189.97C168.427 187.913 167.881 185.89 167.239 183.886L164.905 186.251L150.133 171.569L158.508 163.244C157.593 161.535 156.637 159.915 155.604 158.33L146.225 167.673L131.412 152.973L142.549 141.94C141.242 140.627 139.846 139.373 138.528 138.185L127.533 149.065L112.786 134.377L120.507 126.69C118.674 125.864 116.796 125.14 114.882 124.52L108.877 130.475L99.784 121.44C98.2932 121.339 96.7192 121.274 95.1809 121.274C94.0465 121.274 92.9773 121.304 91.8429 121.386L104.91 134.395L90.1798 149.065L75.432 134.371L88.2138 121.682C84.8957 122.065 81.6142 122.716 78.4017 123.627L71.4941 130.475L68.3818 127.376C66.6652 128.192 64.9487 129.073 63.2441 130.055L67.574 134.377L52.8143 149.065L46.7381 143.01C45.4552 144.317 44.2376 145.671 43.0141 147.096L48.8942 152.973L34.1404 167.673L31.0875 164.622C30.1669 166.331 29.3056 168.069 28.4622 169.855L30.2441 171.563L25.8963 175.833ZM52.9152 194.074L67.6453 208.726L52.9152 223.414L38.1615 208.726L52.9152 194.074ZM86.3726 264.526L71.5654 279.196L56.8413 264.526L71.5654 249.815L86.3726 264.526ZM56.8353 227.334L71.5654 212.658L86.3666 227.334L71.5654 242.016L56.8353 227.334ZM75.527 245.924L90.2808 231.237L105.017 245.924L90.2808 260.588L75.527 245.924ZM94.2009 227.334L108.943 212.629L123.673 227.334L108.943 242.016L94.2009 227.334ZM108.943 249.803L123.673 264.515L108.943 279.185L94.2009 264.526L108.943 249.803ZM112.863 245.913L127.611 231.225L142.323 245.913L127.611 260.577L112.863 245.913ZM112.851 208.726L127.599 194.05L142.323 208.726L127.611 223.414L112.851 208.726ZM108.931 204.824L94.2009 190.142L108.943 175.46L123.673 190.142L108.931 204.824ZM105.011 208.726L90.2808 223.438L75.527 208.726L90.2808 194.074L105.011 208.726ZM71.5535 204.824L56.8413 190.142L71.5654 175.46L86.3726 190.142L71.5535 204.824ZM19.4995 227.293L34.2236 212.617L48.9773 227.293L34.2354 242.016L19.4995 227.293ZM38.1496 245.883L52.9034 231.195L67.6334 245.883L52.9034 260.547L38.1496 245.883ZM38.1496 283.057L52.9152 268.447L67.6453 283.123L52.9152 297.822L38.1496 283.057ZM71.5654 316.341L56.8413 301.701L71.5654 287.013L86.3726 301.701L71.5654 316.341ZM75.527 283.075L90.2808 268.447L105.017 283.123L90.2808 297.798L75.527 283.075ZM108.943 316.341L94.2009 301.677L108.943 286.99L123.673 301.677L108.943 316.341ZM127.611 297.775L112.851 283.099L127.611 268.447L142.323 283.123L127.611 297.775ZM161.05 264.503L146.308 279.173L131.46 264.503L146.308 249.791L161.05 264.503ZM161.05 227.31L146.308 242.016L131.46 227.334L146.308 212.629L161.05 227.31ZM161.05 190.118L146.308 204.824L131.46 190.118L146.308 175.436L161.05 190.118ZM142.323 171.546L127.611 186.257L112.851 171.569L127.599 156.888L142.323 171.546ZM108.943 138.262L123.673 152.95L108.943 167.649L94.2009 152.973L108.943 138.262ZM105.023 171.546L90.2808 186.257L75.527 171.575L90.2808 156.888L105.023 171.546ZM71.5654 138.262L86.3726 152.95L71.5654 167.649L56.8413 152.973L71.5654 138.262ZM52.9152 156.864L67.6453 171.546L52.9152 186.257L38.1615 171.569L52.9152 156.864Z" fill="#F89A2D" stroke="#F40000" stroke-width="0.1"/>
<path d="M110.944 82.6153C117.721 57.5209 140.559 46.653 140.559 46.653C125.449 47.3034 113.712 51.0403 104.833 55.5815C110.546 36.9794 124.386 13.3928 124.386 13.3928C112.014 16.7868 102.801 23.9178 96.3748 30.7827C90.7025 11.7431 76.7387 0 76.7387 0C79.4471 8.3727 80.1123 24.4677 80.2371 35.3593C73.9055 29.4463 64.8478 25.189 51.8224 24.9821C59.7931 33.9941 65.888 44.4912 69.7538 55.8653C58.8667 50.6323 43.7862 47.8474 22.9266 50.1475C22.9266 50.1475 48.9952 55.8002 64.6696 80.2206C39.3375 71.8538 17.8186 83.656 17.8186 83.656C57.3343 91.9341 69.4331 128.08 69.4331 128.08H69.5697C71.0843 131.149 80.3499 133.52 91.5103 133.52C103.781 133.52 113.718 130.699 113.718 127.193L114.609 122.835C123.56 89.6044 158.14 74.9818 158.14 74.9818C139.211 70.6417 123.287 75.3779 110.944 82.6153Z" fill="#429539"/>
<path d="M37.6506 176.306C48.6328 175.98 64.1528 178.18 72.2721 182.384C78.9482 185.843 83.8839 195.02 92.2408 195.487C102.273 196.043 110.766 184.152 117.543 180.983C123.97 177.973 137.055 175.661 148.167 176.306C162.707 177.151 183.211 178.328 186.341 189.87C189.192 200.282 181.589 217.661 178.346 224.49C174.188 233.359 167.221 243.577 159.262 247.887C141.848 257.348 122.39 250.483 113.528 239.462C109.751 234.731 107.185 229.327 103.763 222.154C101.833 218.104 98.804 206.544 93.108 206.249C83.5513 205.746 83.8958 223.254 80.6825 230.107C72.9611 246.533 49.8623 259.376 28.7532 247.414C15.0448 239.639 7.89957 223.449 2.58369 205.308C1.12257 200.342 -0.736499 193.855 0.362313 189.87C3.13607 179.871 23.3483 176.725 37.6506 176.306Z" fill="black"/>
<path d="M24.6728 238.338C39.3316 248.946 63.2797 245.688 73.6442 232.342C78.4433 226.157 83.8958 212.286 79.7619 200.087C73.5313 181.68 27.4109 179.026 13.7441 191.809C8.56481 211.895 12.2057 229.309 24.6728 238.338Z" fill="#44565F"/>
<path d="M108.497 199.65C104.512 210.37 108.64 223.556 112.875 230.101C123.613 246.705 153.264 250.442 168.029 234.24C176.184 225.306 179.249 207.484 174.598 191.786C158.888 178.825 115.037 182.053 108.497 199.65Z" fill="#44565F"/>
<path d="M96.0005 270.528C95.7273 270.528 95.4481 270.528 95.169 270.528C90.6412 270.229 86.3554 268.385 83.0345 265.307C82.8455 265.136 82.7324 264.897 82.7202 264.643C82.7079 264.389 82.7975 264.141 82.9692 263.953C83.1409 263.765 83.3807 263.652 83.6357 263.64C83.8908 263.628 84.1403 263.717 84.3293 263.888C87.3205 266.668 91.1816 268.338 95.264 268.618C99.0772 268.807 102.421 267.536 104.69 265.035C104.861 264.846 105.1 264.732 105.355 264.719C105.482 264.712 105.608 264.731 105.727 264.773C105.846 264.815 105.956 264.88 106.05 264.964C106.144 265.048 106.221 265.15 106.275 265.264C106.329 265.377 106.361 265.501 106.368 265.626C106.374 265.752 106.356 265.878 106.314 265.997C106.271 266.115 106.206 266.224 106.121 266.318C104.83 267.693 103.26 268.78 101.515 269.505C99.7705 270.231 97.8908 270.58 96.0005 270.528Z" fill="#050506" stroke="#F40000" stroke-width="0.1"/>
</g>
<defs>
<clipPath id="clip0_4_241">
<rect width="187" height="322" fill="white"/>
</clipPath>
</defs>
</svg>
